HIERARCHY
ROOT Hips
{
	OFFSET 0.000000 0.000000 0.000000 
	CHANNELS 6 Xposition Yposition Zposition Yrotation Zrotation Xrotation 
	JOINT Lumbar
	{
		OFFSET 0.000000 0.000000 0.000000 
		CHANNELS 3 Zrotation Xrotation Yrotation
		JOINT Neck
		{
			OFFSET 0.000000 0.445665 0.000000 
			CHANNELS 3 Zrotation Xrotation Yrotation
			End Site
			{
				OFFSET 0.000000 0.227535 0.000000 
			}
		}
		JOINT RightShoulder
		{
			OFFSET 0.019635 0.377685 0.194865 
			CHANNELS 3 Zrotation Xrotation Yrotation
			JOINT RightElbow
			{
				OFFSET 0.000000 -0.243375 0.000000 
				CHANNELS 2 Zrotation Yrotation
				JOINT RightWrist
				{
					OFFSET 0.000000 -0.264825 0.000000 
					CHANNELS 2 Zrotation Xrotation
					End Site
					{
						OFFSET 0.006600 -0.176220 0.000990 
					}
				}
			}
		}
		JOINT LeftShoulder
		{
			OFFSET 0.019635 0.377685 -0.194865 
			CHANNELS 3 Zrotation Xrotation Yrotation
			JOINT LeftElbow
			{
				OFFSET 0.000000 -0.243375 0.000000 
				CHANNELS 2 Zrotation Yrotation
				JOINT LeftWrist
				{
					OFFSET 0.000000 -0.264825 0.000000 
					CHANNELS 2 Zrotation Xrotation
					End Site
					{
						OFFSET 0.006600 -0.176220 -0.000990 
					}
				}
			}
		}
	}
	JOINT RightHip
	{
		OFFSET 0.052140 -0.069960 0.075570 
		CHANNELS 3 Zrotation Xrotation Yrotation
		JOINT RightKnee
		{
			OFFSET 0.000000 -0.402270 0.000000 
			CHANNELS 1 Zrotation
			JOINT RightAnkle
			{
				OFFSET 0.000000 -0.404085 0.000000 
				CHANNELS 3 Zrotation Xrotation Yrotation
				End Site
				{
					OFFSET 0.204105 -0.089430 0.008415 
				}
			}
		}
	}
	JOINT LeftHip
	{
		OFFSET 0.052140 -0.069960 -0.075570 
		CHANNELS 3 Zrotation Xrotation Yrotation
		JOINT LeftKnee
		{
			OFFSET 0.000000 -0.402270 0.000000 
			CHANNELS 1 Zrotation
			JOINT LeftAnkle
			{
				OFFSET 0.000000 -0.404085 0.000000 
				CHANNELS 3 Zrotation Xrotation Yrotation
				End Site
				{
					OFFSET 0.204105 -0.089430 -0.008415 
				}
			}
		}
	}
}
MOTION
Frames: 11
Frame Time: 0.02
0.59816 -0.02385 -1.0192 160.9968 -29.20585 -4.5743 37.34696 0.23797 -1.95088 -13.7013 -0.65354 -2.11994 8.00836 -20.00057 33.79467 101.77662 86.95552 6.20397 -0.7364 8.28101 22.81845 -41.37589 104.71518 -84.40525 0.95716 0.17509 42.36648 -0.66537 -10.08543 -36.86574 -8.29959 -3.82026 -4.18138 36.20583 15.43969 8.86786 -25.45983 -8.60045 2.56803 3.58233
0.59615 -0.02358 -1.01728 161.15117 -29.05122 -4.7742 37.30944 0.30788 -2.29558 -13.7914 -0.68922 -2.11994 7.39873 -19.54558 33.41596 102.19172 86.19173 5.05415 -0.7583 8.03699 21.70136 -40.21721 104.87679 -83.1828 -0.04547 0.58746 42.66118 -0.67511 -10.48194 -37.40978 -8.20784 -3.72557 -4.12978 36.13785 15.44473 8.67816 -25.72394 -8.57603 2.58278 3.58861
0.59396 -0.02329 -1.01583 161.29047 -28.91779 -4.98566 37.31204 0.40226 -2.6841 -13.96582 -0.71897 -2.11994 6.62297 -19.20337 33.18856 102.65417 86.29807 4.51885 -0.69204 7.39466 20.84066 -38.99677 104.87726 -83.22621 -0.51537 0.8958 42.99591 -0.64567 -10.87177 -37.88577 -8.09313 -3.60494 -4.06416 36.07616 15.46616 8.42692 -25.97122 -8.56434 2.60719 3.60026
0.59185 -0.02302 -1.0142 161.44121 -28.77324 -5.18694 37.28966 0.48462 -3.05744 -14.09254 -0.7533 -2.11994 5.92729 -18.78984 32.88782 103.08257 85.97527 3.69616 -0.67525 6.95285 19.86742 -37.84658 104.93734 -82.66022 -1.25731 1.26003 43.31047 -0.62876 -11.23972 -38.37081 -7.99261 -3.49835 -4.00621 36.00709 15.47926 8.20852 -26.22306 -8.5462 2.62614 3.60887
0.58972 -0.02269 -1.01246 161.56671 -28.63338 -5.40973 37.29605 0.57301 -3.41215 -14.26299 -0.77983 -2.11994 5.19522 -18.45554 32.57469 103.55839 85.7463 2.87204 -0.62449 6.385 18.88306 -36.48046 105.0543 -82.16618 -1.90653 1.59939 43.63161 -0.63396 -11.72156 -38.94977 -7.87477 -3.381 -3.9421 35.95191 15.49694 7.96998 -26.48646 -8.5314 2.64993 3.62022
0.5876 -0.02249 -1.01105 161.74374 -28.48935 -5.58971 37.25234 0.6539 -3.81497 -14.3615 -0.82102 -2.11994 4.51026 -17.98743 32.33285 103.94669 85.54646 2.20802 -0.62039 6.00308 17.97984 -35.56124 105.01522 -81.85086 -2.60694 1.96084 43.94921 -0.58485 -11.9627 -39.31522 -7.78807 -3.28046 -3.88781 35.8708 15.50844 7.75885 -26.7216 -8.51252 2.66577 3.62705
0.58558 -0.02264 -1.01038 162.06332 -28.32989 -5.6545 37.0558 0.70674 -4.34716 -14.23162 -0.90549 -2.11994 3.94437 -17.09566 32.28416 104.10695 85.22519 1.87082 -0.77846 6.21727 17.24844 -35.92679 104.57699 -81.7172 -3.60776 2.41509 44.24802 -0.38333 -11.52398 -39.12133 -7.79333 -3.23145 -3.86343 35.72334 15.50133 7.63545 -26.89204 -8.47852 2.65758 3.62004
0.58358 -0.02292 -1.01004 162.43675 -28.16597 -5.67463 36.80852 0.75117 -4.92486 -14.02711 -1.00468 -2.11994 3.44325 -16.07215 32.30118 104.17345 84.90962 1.67492 -0.98368 6.6411 16.58799 -36.7443 103.98745 -81.73056 -4.6675 2.89173 44.54235 -0.13084 -10.84571 -38.71234 -7.83079 -3.20048 -3.84955 35.54961 15.4869 7.54214 -27.03318 -8.44004 2.64094 3.60827
0.58158 -0.02314 -1.00957 162.78852 -28.00289 -5.7114 36.58704 0.79992 -5.47681 -13.86245 -1.09618 -2.11994 2.9478 -15.12493 32.27069 104.26808 84.5894 1.39369 -1.15894 6.98474 15.88651 -37.3363 103.47383 -81.68804 -5.67859 3.35329 44.83801 0.09088 -10.28567 -38.39287 -7.85357 -3.1624 -3.83147 35.38365 15.47405 7.43701 -27.18209 -8.40401 2.62794 3.59866
0.57956 -0.02338 -1.00902 163.12766 -27.84357 -5.7642 36.35416 0.84718 -6.0515 -13.67709 -1.19158 -2.11994 2.29716 -14.10632 32.31751 104.42732 84.30136 1.21224 -1.36725 7.25012 15.228 -38.00674 102.92956 -81.64142 -6.76902 3.83501 45.13652 0.34703 -9.68283 -38.10574 -7.87603 -3.11945 -3.81079 35.23341 15.46903 7.32221 -27.354 -8.36663 2.61615 3.58925
0.57757 -0.02361 -1.00872 163.50628 -27.67752 -5.77261 36.13403 0.89559 -6.58931 -13.51436 -1.28255 -2.11994 1.98857 -13.21112 32.21938 104.42668 83.94396 0.86133 -1.51904 7.73354 14.49747 -38.6266 102.40879 -81.62302 -7.70872 4.27779 45.42937 0.54186 -9.11634 -37.70112 -7.90672 -3.09047 -3.79779 35.04664 15.44594 7.23515 -27.47102 -8.33087 2.59968 3.57821
